<?xml version="1.0" encoding="utf-8"?>
<!-- Generator: Adobe Illustrator 27.0.0, SVG Export Plug-In . SVG Version: 6.00 Build 0)  -->
<svg version="1.1" id="Capa_1" xmlns="http://www.w3.org/2000/svg" xmlns:xlink="http://www.w3.org/1999/xlink" x="0px" y="0px"
	 viewBox="0 0 484 421" style="enable-background:new 0 0 484 421;" xml:space="preserve">
<style type="text/css">
	.st0{fill:none;stroke:#000000;stroke-width:32;stroke-linecap:round;stroke-linejoin:round;}
	.st1{fill:none;stroke:#000000;stroke-width:32;stroke-linecap:round;stroke-miterlimit:10;}
</style>
<path d="M312.1,185.9l-47.5,75.5c-1.9,2.7-4.3,5.1-7,7c-13.6,9.5-32.4,6.2-41.9-7.5c-9.4-13.4-6.3-31.9,6.9-41.5l75.5-47.5
	c3.5-2.5,8.2-2.5,11.7,0C314.3,175.1,315.3,181.4,312.1,185.9z"/>
<path class="st0" d="M242,18C118.3,18,18,118.2,18,241.9c-0.1,54.7,20,107.6,56.3,148.5c1.1,1.2,2.1,2.4,3.2,3.5
	c9.4,10.2,25.4,10.9,35.6,1.4c0.5-0.5,1-1,1.5-1.5c64.7-70.4,174.3-74.9,244.6-10.2c3.5,3.2,6.9,6.6,10.2,10.2
	c9.4,10.3,25.3,11,35.6,1.6c0.5-0.5,1-1,1.5-1.5l3.2-3.5c36.3-40.9,56.4-93.8,56.3-148.5C466,118.2,365.7,18,242,18z"/>
<line class="st1" x1="242" y1="82" x2="242" y2="114"/>
<line class="st1" x1="402" y1="242" x2="370" y2="242"/>
<line class="st1" x1="114" y1="242" x2="82" y2="242"/>
<line class="st1" x1="151.5" y1="151.5" x2="128.9" y2="128.9"/>
<line class="st1" x1="332.5" y1="151.5" x2="355.1" y2="128.9"/>
</svg>
