<?xml version="1.0" encoding="utf-8"?>
<!-- Generator: Adobe Illustrator 27.0.0, SVG Export Plug-In . SVG Version: 6.00 Build 0)  -->
<svg version="1.1" id="Capa_1" xmlns="http://www.w3.org/2000/svg" xmlns:xlink="http://www.w3.org/1999/xlink" x="0px" y="0px"
	 viewBox="0 0 28.9 29" style="enable-background:new 0 0 28.9 29;" xml:space="preserve">
<style type="text/css">
	.st0{fill:#263238;}
</style>
<g id="globe_sphere">
	<g>
		<path class="st0" d="M14.5,7.1c-2.7,0-5.5-0.3-8.1-0.9C6.1,6.1,5.9,5.9,6,5.6c0.1-0.3,0.3-0.4,0.6-0.4c5.8,1.4,11.9,1.2,17.7-0.5
			c0.3-0.1,0.5,0.1,0.6,0.3c0.1,0.3-0.1,0.5-0.3,0.6C21.3,6.6,17.9,7.1,14.5,7.1z"/>
		<path class="st0" d="M24.4,24.3c0,0-0.1,0-0.1,0c-6.4-1.9-13.2-1.9-19.6,0c-0.3,0.1-0.5-0.1-0.6-0.3c-0.1-0.3,0.1-0.5,0.3-0.6
			c6.5-1.9,13.6-1.9,20.1,0c0.3,0.1,0.4,0.4,0.3,0.6C24.8,24.2,24.6,24.3,24.4,24.3z"/>
		<path class="st0" d="M13.9,28.6c-0.1,0-0.2,0-0.3-0.1c-4.7-3.2-7.5-8.4-7.5-14c0-4.5,1.8-8.8,5-12c0.2-0.2,0.5-0.2,0.7,0
			c0.2,0.2,0.2,0.5,0,0.7c-3,3-4.7,7-4.7,11.3c0,5.3,2.6,10.2,7,13.2c0.2,0.2,0.3,0.5,0.1,0.7C14.2,28.5,14,28.6,13.9,28.6z"/>
		<path class="st0" d="M15.2,28.6c-0.2,0-0.3-0.1-0.4-0.2c-0.2-0.2-0.1-0.5,0.1-0.7c4.4-3,7-7.9,7-13.2s-2.6-10.2-7-13.2
			c-0.2-0.2-0.3-0.5-0.1-0.7c0.2-0.2,0.5-0.3,0.7-0.1c4.7,3.2,7.5,8.4,7.5,14s-2.8,10.8-7.5,14C15.4,28.6,15.3,28.6,15.2,28.6z"/>
		<g>
			<path class="st0" d="M14.5,28.4c-0.3,0-0.5-0.2-0.5-0.5V1.1c0-0.3,0.2-0.5,0.5-0.5S15,0.8,15,1.1v26.9
				C15,28.2,14.8,28.4,14.5,28.4z"/>
		</g>
		<g>
			<path class="st0" d="M28.4,15H2.6c-0.3,0-0.5-0.2-0.5-0.5S2.3,14,2.6,14h25.9c0.3,0,0.5,0.2,0.5,0.5S28.7,15,28.4,15z"/>
		</g>
		<path class="st0" d="M14.5,29C6.5,29,0,22.5,0,14.5C0,11,1.3,7.6,3.6,4.9c0.2-0.2,0.5-0.2,0.7,0c0.2,0.2,0.2,0.5,0,0.7
			C2.2,8.1,1,11.2,1,14.5C1,21.9,7.1,28,14.5,28S28,21.9,28,14.5S21.9,1,14.5,1c-3.1,0-6,1-8.4,2.9C5.9,4.1,5.6,4.1,5.4,3.8
			C5.2,3.6,5.3,3.3,5.5,3.1c2.6-2,5.7-3.1,9-3.1C22.5,0,29,6.5,29,14.5S22.5,29,14.5,29z"/>
	</g>
</g>
</svg>
